<svg id="Logo" xmlns="http://www.w3.org/2000/svg" xmlns:xlink="http://www.w3.org/1999/xlink" viewBox="0 0 302.02 491.71"><defs><style>.cls-1{fill:url(#linear-gradient)}.cls-2{fill:url(#linear-gradient-2)}.cls-3{fill:none}</style><linearGradient id="linear-gradient" x1="559.26" y1="451.8" x2="559.26" y2="753.82" gradientUnits="userSpaceOnUse"><stop offset="0" stop-color="#e97500"/><stop offset=".19" stop-color="#ff8f00"/><stop offset="1" stop-color="#ffdf15"/></linearGradient><linearGradient id="linear-gradient-2" x1="611.16" y1="268.69" x2="394.05" y2="644.73" xlink:href="#linear-gradient"/></defs><title>boost-logo</title><path class="cls-1" d="M559.26 451.8a151 151 0 0 0-151 151v151h151a151 151 0 1 0 0-302z" transform="translate(-408.25 -262.1)"/><path class="cls-2" d="M710.23 416.42v-8.45c0-.81-.05-1.61-.09-2.42 0-.56-.07-1.11-.1-1.67s-.08-1.38-.13-2.07-.1-1.22-.15-1.83-.11-1.26-.17-1.88-.14-1.3-.21-1.94-.13-1.15-.2-1.73-.18-1.36-.27-2c-.07-.53-.14-1.06-.22-1.59-.11-.71-.22-1.42-.34-2.13-.08-.49-.16-1-.24-1.47-.13-.74-.26-1.48-.4-2.22-.08-.45-.17-.9-.26-1.34q-.23-1.15-.48-2.3l-.27-1.22q-.27-1.19-.55-2.38l-.27-1.09q-.31-1.24-.63-2.47l-.26-1q-.35-1.28-.72-2.56l-.24-.82q-.4-1.33-.82-2.65l-.22-.67q-.45-1.39-.92-2.76l-.17-.49q-.51-1.45-1-2.89l-.11-.28q-.58-1.54-1.18-3.06-1-2.45-2-4.85l-.17-.39q-.47-1.06-1-2.11l-.34-.72q-.49-1-1-2.09l-.18-.36q-1.15-2.33-2.37-4.62v-.06c-.37-.68-.74-1.36-1.12-2l-.39-.7q-.56-1-1.13-2l-.32-.55q-1.86-3.16-3.87-6.22l-.46-.7-1.23-1.82-.47-.67q-2-2.93-4.19-5.75l-.55-.71-1.46-1.72-.62-.76c-.45-.56-.9-1.12-1.36-1.67q-1.53-1.83-3.11-3.61l-.66-.75-1.36-1.49-.78-.83-1.37-1.45-.67-.69q-1.3-1.34-2.64-2.65l-.83-.81-1.38-1.3-1-.89-1.37-1.25-1-.89q-1.18-1-2.39-2.07l-1.11-.94-1.36-1.11-1.15-.93-1.35-1.07-1.25-1-1.6-1.21-1.93-1.4-1.3-.91-1.37-.95-1.32-.89-1.46-1-1.24-.81q-1.25-.8-2.51-1.57l-1.18-.71-1.63-1-1.28-.74-1.65-.92-1.21-.66q-1.34-.72-2.7-1.42l-1-.49-2-1-1.23-.59-1.83-.86-1.18-.54-2.54-1.11-.93-.39-2.47-1-1.15-.45-2-.77-1.16-.43-2.46-.87-.67-.23q-1.54-.52-3.09-1l-1.06-.32-2.21-.66-1.14-.33-2.46-.66-.8-.21q-1.6-.41-3.22-.79l-.93-.21-2.42-.53-1.13-.23-2.48-.47-.9-.17q-1.66-.29-3.34-.55l-.76-.11-2.66-.37-1.11-.14-2.51-.29-1-.1q-1.71-.17-3.44-.31h-.5l-3-.19-1.09-.05-2.54-.1H408.23v390.8S663.5 610.71 704.6 452.46c3.21-12.32 5.4-24.3 5.63-36.04z" transform="translate(-408.25 -262.1)"/><path id="_Slice_" data-name="&lt;Slice&gt;" class="cls-3" d="M0 0h302.02v491.71H0z"/></svg>