<svg id="Layer_1" data-name="Layer 1" xmlns="http://www.w3.org/2000/svg" viewBox="0 0 297.28 297.28"><defs><style>.cls-1{fill:#bfbfbf;}</style></defs><title>enlarge-icon</title><path class="cls-1" d="M559.92,228.4q-87.72-.06-175.44,0c-9.76,0-13.24,3.53-13.26,13.28q-.06,30.49,0,61c0,21.66,0,43.32,0,65,0,7.56,4.6,12.12,11.26,11.54,5.92-.51,9.2-4.94,9.21-12.62q0-53.48,0-107,0-5.16,0-10.31H552v160H434.54c-8.14,0-12.68,3.63-12.75,10.11s4.54,10.38,12.49,10.38q63,0,126,0c8.45,0,12.33-3.77,12.33-12.12q.07-88.22,0-176.44C572.61,232,569,228.4,559.92,228.4Z" transform="translate(-275.34 -228.35)"/><path class="cls-1" d="M318.08,468.32a33.07,33.07,0,0,0-3.76,4,9.61,9.61,0,0,0-.7,10.82c1.94,3.53,5.19,5.83,9,4.93a20.19,20.19,0,0,0,9.25-5Q421.14,394.14,510.14,305c1.35-1.35,2.79-2.63,4.83-4.53.13,2.48.28,4.06.29,5.64,0,8-.14,16,.08,24,.17,6.4,4.59,10.81,10.2,10.75s10.11-4.44,10.16-10.82q.24-26.74,0-53.49c-.05-6.26-3.52-10.59-9-10.67-19-.25-38-.24-57-.06-5.05,0-8.67,4-9.16,8.93a10,10,0,0,0,7.67,10.82,21,21,0,0,0,5,.38c8.61,0,17.23,0,25.84,0l.82,1.52a47,47,0,0,0-4.3,3.42Q406.79,379.58,318.08,468.32Z" transform="translate(-275.34 -228.35)"/><path class="cls-1" d="M404.4,433.61c-2.63-3.15-6.86-3.19-10.62-1.3-4.15,2.09-5.74,5.73-5.73,10.28q.06,28.24,0,56.47c0,1.93,0,3.86,0,5.74H296V412.94h5.43q28,0,56,0c7.51,0,12.35-3.94,12.42-10,.07-6.24-4.58-10.22-12.12-10.24q-35-.06-70,0c-8.81,0-12.37,3.6-12.37,12.51q0,53,0,105.95c0,11.6,3,14.53,14.46,14.54h99.95c17.19,0,18.59-1.37,18.58-18.37,0-21.32.14-42.65-.19-64A16.75,16.75,0,0,0,404.4,433.61Z" transform="translate(-275.34 -228.35)"/></svg>