<svg id="Layer_1" data-name="Layer 1" xmlns="http://www.w3.org/2000/svg" viewBox="0 0 217 217"><defs><style>.cls-1{fill:#333;}</style></defs><title>export-icon</title><g id="export"><path class="cls-1" d="M501.5,264c-.07,5-.16,10-.2,15,0,3.87,0,7.74,0,11.85h-81.2V453.47H582.56c0-.74.1-1.55.1-2.36,0-12.08,0-24.16.05-36.23a4.9,4.9,0,0,1,1.23-3.12c8-8.16,16.14-16.23,24.24-24.3a17.25,17.25,0,0,1,1.82-1.4v67.81c-.12.68-.28,1.37-.34,2.06a26.93,26.93,0,0,1-20.34,24c-2.1.53-4.29.72-6.44,1.06H419.7c-.62-.11-1.23-.27-1.86-.33a27,27,0,0,1-24.18-20.18c-.18-.66-.44-1.3-.66-2q0-86.25,0-172.5c.16-.45.36-.88.48-1.34,2.61-9.75,8.64-16.34,18.2-19.64,1.11-.38,2.24-.71,3.36-1.06Z" transform="translate(-393 -264)"/><path class="cls-1" d="M528.52,358.9a57.37,57.37,0,0,0-22.87,4.89c-14.6,6.29-25.89,16.67-35.49,29.06C460.71,405,453.63,418.57,448,432.9c-.3.76-.62,1.51-1.09,2.63,0-4.12-.19-7.82,0-11.49a185.68,185.68,0,0,1,11.28-54.92c6.79-18,16.1-34.37,30.52-47.42,8.84-8,18.93-13.75,30.82-15.87a48.16,48.16,0,0,1,6.93-.71c1.55,0,2-.5,2-2.09-.07-10-.06-19.91,0-29.87a18.54,18.54,0,0,1,.49-4.81c.83-3,3.17-4.12,6.08-3a9.51,9.51,0,0,1,2.54,1.47c22.16,17.74,44.25,35.55,66.48,53.19A13,13,0,0,1,609.46,330,32.79,32.79,0,0,1,609,337a9.24,9.24,0,0,1-3.4,5.9q-34,27.18-67.94,54.42a9.82,9.82,0,0,1-3,1.58c-2.55.86-4.78-.15-5.56-2.71a18.56,18.56,0,0,1-.62-5.21c-.05-9.89,0-19.77,0-29.66C528.52,360.6,528.52,359.9,528.52,358.9Z" transform="translate(-393 -264)"/></g></svg>