<svg id="Layer_1" data-name="Layer 1" xmlns="http://www.w3.org/2000/svg" viewBox="0 0 216 192.02"><defs><style>.cls-1{fill:#333;}</style></defs><title>print-icon</title><g id="aTEYGP.tif"><path class="cls-1" d="M393,393.5V345.41a4.64,4.64,0,0,0,.37-.95c2.32-15,12.92-26.87,27.62-30,5.36-1.13,11-.78,16.56-1.09.87,0,1.75,0,2.7,0,0-1.2,0-2,0-2.88,0-10.9,0-21.79,0-32.69,0-7.18,5-12.36,12.12-12.38q39.43-.08,78.87,0a11.36,11.36,0,0,1,8.22,3.25q8.5,8.35,16.86,16.84a13,13,0,0,1,3.91,9.68c-.08,5.27,0,10.54,0,15.81,0,.74.06,1.48.1,2.37,5.78,0,11.33-.11,16.87,0a44.23,44.23,0,0,1,9.6,1c11.33,2.88,17.4,11,20.46,21.69.82,2.87,1.18,5.88,1.75,8.82V393.5c-3.13,8-6.11,10-14.74,10H573V361.62H428.93v41.65a5.41,5.41,0,0,1-1,.21c-7.8,0-15.6,0-23.4,0a11.49,11.49,0,0,1-7.33-2.83A14.27,14.27,0,0,1,393,393.5Zm155.24-80.2c0-6.14,0-12.17,0-18.19a3,3,0,0,0-1-1.7c-4.9-4.95-9.79-9.89-14.77-14.75a4.28,4.28,0,0,0-2.7-1.13q-37.54-.09-75.07-.05c-.74,0-1.48.07-2.2.11V313.3ZM573,325.49A12,12,0,1,0,585,337.59,11.95,11.95,0,0,0,573,325.49Z" transform="translate(-393 -265.43)"/><path class="cls-1" d="M440.24,373.57h120c0,5.33,0,10.52,0,15.71,0,18.35,0,36.7,0,55.05,0,4.1-1.17,7.6-4.35,10.3a12.16,12.16,0,0,1-8.19,2.81q-47.56,0-95.13,0c-7.37,0-12.33-5.24-12.33-12.6q0-34.27,0-68.55Zm60.11,17.87h-23.2c-6.19,0-12.37,0-18.56,0-3.69,0-6.28,2.53-6.35,5.94s2.56,5.91,6.23,6.08c.77,0,1.55,0,2.32,0H497.7q21.72,0,43.45,0c2.29,0,4.35-.45,5.8-2.37a5.61,5.61,0,0,0,.71-6.15,6.05,6.05,0,0,0-6-3.54Q521,391.46,500.35,391.44Zm0,24H486.66c-9.35,0-18.7,0-28.05,0-3.68,0-6.32,2.51-6.36,5.9s2.53,5.91,6.21,6.07c.63,0,1.27,0,1.9,0h80.78a14.74,14.74,0,0,0,1.89-.09,6,6,0,0,0,5.21-5.5,5.87,5.87,0,0,0-4.25-6.06,11.78,11.78,0,0,0-3.12-.32Q520.61,415.43,500.37,415.45Z" transform="translate(-393 -265.43)"/></g></svg>