<svg id="Layer_1" data-name="Layer 1" xmlns="http://www.w3.org/2000/svg" viewBox="0 0 256 256"><defs><style>.cls-1{fill:#67a0fe;}</style></defs><title>search-icon</title><path class="cls-1" d="M1,121V102c1.41-.87,1-2.36,1.14-3.61C9.28,49.53,43,13.29,90.5,3.42,94.66,2.55,99,2.87,103,1h17c4.14,1.85,8.69,1.54,13,2.44,74.27,15.53,111.07,95.31,74.58,162-1.71,3.12-1.37,4.8,1.07,7.18C220,183.71,231,195.09,242.32,206.1c6.5,6.3,12.56,12.73,14.68,21.9v7c-1.49,3.27-2.72,6.69-4.51,9.79-4.09,7.08-11.14,9.92-18.49,12.21h-7c-9.49-2.8-16-9.66-22.62-16.44-10.13-10.36-20.6-20.39-30.63-30.84-3.16-3.29-5.34-3.79-9.6-1.47C98.89,243.86,19,206.78,3.67,134,2.76,129.66,3,125.09,1,121Zm34.6-9.82c-.23,42.06,33.5,76.51,75.21,76.81A76.2,76.2,0,1,0,35.6,111.18Z" transform="translate(-1 -1)"/></svg>