<svg id="Layer_1" data-name="Layer 1" xmlns="http://www.w3.org/2000/svg" viewBox="0 0 215.23 256"><defs><style>.cls-1{fill:#333;}</style></defs><title>trash-icon</title><g id="JdVcVf.tif"><path class="cls-1" d="M564,520H438c-21-8.09-25.43-14.6-25.43-37.74q0-71,0-141.92c0-2.26.21-4.53.32-6.83H589.13c.12,1.69.28,3,.28,4.33q0,75.21,0,150.42c0,10.62-3.4,19.78-12.39,25.87C573.14,516.76,568.37,518.08,564,520ZM491.25,362.49v118h19.49v-118ZM451.68,480.93c5.65,0,10.77-.17,15.86.06,3.38.15,4.25-1.26,4.25-4.39q-.1-55.17,0-110.34c0-2.95-.92-4.27-4-4.12a77.43,77.43,0,0,1-11,0c-4.34-.41-5.21,1.44-5.19,5.43.14,35.95.08,71.9.08,107.84ZM550,362.17c-5.05,0-9.85.26-14.6-.08-4.32-.31-5.28,1.48-5.25,5.46.15,23.8.07,47.6.07,71.4,0,12.48-.06,25,.09,37.44,0,1.49,1.18,4.2,1.93,4.24,5.88.36,11.79.2,17.76.2Z" transform="translate(-393.33 -264)"/><path class="cls-1" d="M529,264c3,1.26,6.23,2.21,9,3.85a22.9,22.9,0,0,1,11.77,19.7c.22,5.46,2.3,6.55,7.22,6.39,10.15-.34,20.32,0,30.47-.12,5.56,0,9.66,1.76,11.49,7.51.31,1,2,1.91,3.19,2.13a37.65,37.65,0,0,0,6.38.09v19H393.33V304.07a17.59,17.59,0,0,1,3.51-.45c3.59.27,6-.36,7.31-4.53s5.55-5.28,9.85-5.27c11,0,22-.08,33,.06,3.25,0,4.81-.76,5-4.35.69-13.17,7.18-21.78,20.32-24.88.27-.06.47-.43.7-.66Zm.81,29.57c.4-7.44-1-9.46-7.37-9.55q-21.43-.3-42.87,0c-6.55.1-8.26,2.65-7.1,9.55Z" transform="translate(-393.33 -264)"/></g></svg>